<svg xmlns="http://www.w3.org/2000/svg" viewBox="0 0 460.78 367.65" x="0px" y="0px"><title>8-bit pixel frame</title><g data-name="Layer 2"><g data-name="Layer 1"><rect x="450.98" y="254.9" width="9.8" height="9.81"/><rect x="450.98" y="245.1" width="9.8" height="9.8"/><rect x="450.98" y="235.29" width="9.8" height="9.81"/><rect x="450.98" y="225.49" width="9.8" height="9.8"/><rect x="450.98" y="215.69" width="9.8" height="9.8"/><rect x="450.98" y="205.88" width="9.8" height="9.81"/><rect x="450.98" y="196.08" width="9.8" height="9.8"/><rect x="450.98" y="186.27" width="9.8" height="9.81"/><rect x="450.98" y="176.47" width="9.8" height="9.8"/><rect x="450.98" y="166.67" width="9.8" height="9.8"/><rect x="450.98" y="156.86" width="9.8" height="9.81"/><rect x="450.98" y="147.06" width="9.8" height="9.8"/><rect x="450.98" y="137.25" width="9.8" height="9.81"/><rect x="450.98" y="127.45" width="9.8" height="9.8"/><rect x="450.98" y="117.65" width="9.8" height="9.8"/><rect x="450.98" y="107.84" width="9.8" height="9.81"/><rect x="450.98" y="98.04" width="9.8" height="9.8"/><rect x="450.98" y="88.24" width="9.8" height="9.8"/><rect x="450.98" y="78.43" width="9.8" height="9.81"/><rect x="450.98" y="68.63" width="9.8" height="9.8"/><rect x="450.98" y="58.82" width="9.8" height="9.81"/><rect x="450.98" y="49.02" width="9.8" height="9.8"/><rect x="450.98" y="39.22" width="9.8" height="9.8"/><rect x="450.98" y="29.41" width="9.8" height="9.81"/><rect x="441.17" y="274.51" width="9.81" height="9.8"/><rect x="441.17" y="264.71" width="9.81" height="9.8"/><rect x="441.17" y="19.61" width="9.81" height="9.8"/><rect x="441.17" y="9.8" width="9.81" height="9.81"/><rect x="431.37" y="274.51" width="9.8" height="9.8"/><rect x="431.37" y="245.1" width="9.8" height="9.8"/><rect x="431.37" y="235.29" width="9.8" height="9.81"/><rect x="431.37" y="225.49" width="9.8" height="9.8"/><rect x="431.37" y="215.69" width="9.8" height="9.8"/><rect x="431.37" y="205.88" width="9.8" height="9.81"/><rect x="431.37" y="196.08" width="9.8" height="9.8"/><rect x="431.37" y="186.27" width="9.8" height="9.81"/><rect x="431.37" y="176.47" width="9.8" height="9.8"/><rect x="431.37" y="166.67" width="9.8" height="9.8"/><rect x="431.37" y="156.86" width="9.8" height="9.81"/><rect x="431.37" y="147.06" width="9.8" height="9.8"/><rect x="431.37" y="137.25" width="9.8" height="9.81"/><rect x="431.37" y="127.45" width="9.8" height="9.8"/><rect x="431.37" y="117.65" width="9.8" height="9.8"/><rect x="431.37" y="107.84" width="9.8" height="9.81"/><rect x="431.37" y="98.04" width="9.8" height="9.8"/><rect x="431.37" y="88.24" width="9.8" height="9.8"/><rect x="431.37" y="78.43" width="9.8" height="9.81"/><rect x="431.37" y="68.63" width="9.8" height="9.8"/><rect x="431.37" y="58.82" width="9.8" height="9.81"/><rect x="431.37" y="49.02" width="9.8" height="9.8"/><rect x="431.37" y="39.22" width="9.8" height="9.8"/><rect x="431.37" y="9.8" width="9.8" height="9.81"/><rect x="421.56" y="284.31" width="9.81" height="9.81"/><rect x="421.56" y="254.9" width="9.81" height="9.81"/><rect x="421.56" y="29.41" width="9.81" height="9.81"/><rect x="421.56" width="9.81" height="9.8"/><rect x="411.76" y="284.31" width="9.8" height="9.81"/><rect x="411.76" y="264.71" width="9.8" height="9.8"/><rect x="411.76" y="19.61" width="9.8" height="9.8"/><rect x="411.76" width="9.8" height="9.8"/><rect x="401.96" y="284.31" width="9.8" height="9.81"/><rect x="401.96" y="264.71" width="9.8" height="9.8"/><rect x="401.96" y="19.61" width="9.8" height="9.8"/><rect x="401.96" width="9.8" height="9.8"/><rect x="392.15" y="284.31" width="9.81" height="9.81"/><rect x="392.15" y="264.71" width="9.81" height="9.8"/><rect x="392.15" y="19.61" width="9.81" height="9.8"/><rect x="392.15" width="9.81" height="9.8"/><rect x="382.35" y="284.31" width="9.8" height="9.81"/><rect x="382.35" y="264.71" width="9.8" height="9.8"/><rect x="382.35" y="19.61" width="9.8" height="9.8"/><rect x="382.35" width="9.8" height="9.8"/><rect x="372.55" y="284.31" width="9.8" height="9.81"/><rect x="372.55" y="264.71" width="9.8" height="9.8"/><rect x="372.55" y="19.61" width="9.8" height="9.8"/><rect x="372.55" width="9.8" height="9.8"/><rect x="362.74" y="284.31" width="9.81" height="9.81"/><rect x="362.74" y="264.71" width="9.81" height="9.8"/><rect x="362.74" y="19.61" width="9.81" height="9.8"/><rect x="362.74" width="9.81" height="9.8"/><rect x="352.94" y="284.31" width="9.8" height="9.81"/><rect x="352.94" y="264.71" width="9.8" height="9.8"/><rect x="352.94" y="19.61" width="9.8" height="9.8"/><rect x="352.94" width="9.8" height="9.8"/><rect x="343.13" y="284.31" width="9.81" height="9.81"/><rect x="343.13" y="264.71" width="9.81" height="9.8"/><rect x="343.13" y="19.61" width="9.81" height="9.8"/><rect x="343.13" width="9.81" height="9.8"/><rect x="333.33" y="284.31" width="9.8" height="9.81"/><rect x="333.33" y="264.71" width="9.8" height="9.8"/><rect x="333.33" y="19.61" width="9.8" height="9.8"/><rect x="333.33" width="9.8" height="9.8"/><rect x="323.53" y="284.31" width="9.8" height="9.81"/><rect x="323.53" y="264.71" width="9.8" height="9.8"/><rect x="323.53" y="19.61" width="9.8" height="9.8"/><rect x="323.53" width="9.8" height="9.8"/><rect x="313.72" y="284.31" width="9.81" height="9.81"/><rect x="313.72" y="264.71" width="9.81" height="9.8"/><rect x="313.72" y="19.61" width="9.81" height="9.8"/><rect x="313.72" width="9.81" height="9.8"/><rect x="303.92" y="284.31" width="9.8" height="9.81"/><rect x="303.92" y="264.71" width="9.8" height="9.8"/><rect x="303.92" y="19.61" width="9.8" height="9.8"/><rect x="303.92" width="9.8" height="9.8"/><rect x="294.11" y="284.31" width="9.81" height="9.81"/><rect x="294.11" y="264.71" width="9.81" height="9.8"/><rect x="294.11" y="19.61" width="9.81" height="9.8"/><rect x="294.11" width="9.81" height="9.8"/><rect x="284.31" y="284.31" width="9.8" height="9.81"/><rect x="284.31" y="264.71" width="9.8" height="9.8"/><rect x="284.31" y="19.61" width="9.8" height="9.8"/><rect x="284.31" width="9.8" height="9.8"/><rect x="274.51" y="284.31" width="9.8" height="9.81"/><rect x="274.51" y="264.71" width="9.8" height="9.8"/><rect x="274.51" y="19.61" width="9.8" height="9.8"/><rect x="274.51" width="9.8" height="9.8"/><rect x="264.7" y="284.31" width="9.81" height="9.81"/><rect x="264.7" y="264.71" width="9.81" height="9.8"/><rect x="264.7" y="19.61" width="9.81" height="9.8"/><rect x="264.7" width="9.81" height="9.8"/><rect x="254.9" y="284.31" width="9.8" height="9.81"/><rect x="254.9" y="264.71" width="9.8" height="9.8"/><rect x="254.9" y="19.61" width="9.8" height="9.8"/><rect x="254.9" width="9.8" height="9.8"/><rect x="245.09" y="284.31" width="9.81" height="9.81"/><rect x="245.09" y="264.71" width="9.81" height="9.8"/><rect x="245.09" y="19.61" width="9.81" height="9.8"/><rect x="245.09" width="9.81" height="9.8"/><rect x="235.29" y="284.31" width="9.8" height="9.81"/><rect x="235.29" y="264.71" width="9.8" height="9.8"/><rect x="235.29" y="19.61" width="9.8" height="9.8"/><rect x="235.29" width="9.8" height="9.8"/><rect x="225.49" y="284.31" width="9.8" height="9.81"/><rect x="225.49" y="264.71" width="9.8" height="9.8"/><rect x="225.49" y="19.61" width="9.8" height="9.8"/><rect x="225.49" width="9.8" height="9.8"/><rect x="215.68" y="284.31" width="9.81" height="9.81"/><rect x="215.68" y="264.71" width="9.81" height="9.8"/><rect x="215.68" y="19.61" width="9.81" height="9.8"/><rect x="215.68" width="9.81" height="9.8"/><rect x="205.88" y="284.31" width="9.8" height="9.81"/><rect x="205.88" y="264.71" width="9.8" height="9.8"/><rect x="205.88" y="19.61" width="9.8" height="9.8"/><rect x="205.88" width="9.8" height="9.8"/><rect x="196.07" y="284.31" width="9.81" height="9.81"/><rect x="196.07" y="264.71" width="9.81" height="9.8"/><rect x="196.07" y="19.61" width="9.81" height="9.8"/><rect x="196.07" width="9.81" height="9.8"/><rect x="186.27" y="284.31" width="9.8" height="9.81"/><rect x="186.27" y="264.71" width="9.8" height="9.8"/><rect x="186.27" y="19.61" width="9.8" height="9.8"/><rect x="186.27" width="9.8" height="9.8"/><rect x="176.47" y="284.31" width="9.8" height="9.81"/><rect x="176.47" y="264.71" width="9.8" height="9.8"/><rect x="176.47" y="19.61" width="9.8" height="9.8"/><rect x="176.47" width="9.8" height="9.8"/><rect x="166.66" y="284.31" width="9.81" height="9.81"/><rect x="166.66" y="264.71" width="9.81" height="9.8"/><rect x="166.66" y="19.61" width="9.81" height="9.8"/><rect x="166.66" width="9.81" height="9.8"/><rect x="156.86" y="284.31" width="9.8" height="9.81"/><rect x="156.86" y="264.71" width="9.8" height="9.8"/><rect x="156.86" y="19.61" width="9.8" height="9.8"/><rect x="156.86" width="9.8" height="9.8"/><rect x="147.05" y="284.31" width="9.81" height="9.81"/><rect x="147.05" y="264.71" width="9.81" height="9.8"/><rect x="147.05" y="19.61" width="9.81" height="9.8"/><rect x="147.05" width="9.81" height="9.8"/><rect x="137.25" y="284.31" width="9.8" height="9.81"/><rect x="137.25" y="264.71" width="9.8" height="9.8"/><rect x="137.25" y="19.61" width="9.8" height="9.8"/><rect x="137.25" width="9.8" height="9.8"/><rect x="127.45" y="284.31" width="9.8" height="9.81"/><rect x="127.45" y="264.71" width="9.8" height="9.8"/><rect x="127.45" y="19.61" width="9.8" height="9.8"/><rect x="127.45" width="9.8" height="9.8"/><rect x="117.64" y="284.31" width="9.81" height="9.81"/><rect x="117.64" y="264.71" width="9.81" height="9.8"/><rect x="117.64" y="19.61" width="9.81" height="9.8"/><rect x="117.64" width="9.81" height="9.8"/><rect x="107.84" y="284.31" width="9.8" height="9.81"/><rect x="107.84" y="264.71" width="9.8" height="9.8"/><rect x="107.84" y="19.61" width="9.8" height="9.8"/><rect x="107.84" width="9.8" height="9.8"/><rect x="98.04" y="284.31" width="9.8" height="9.81"/><rect x="98.04" y="264.71" width="9.8" height="9.8"/><rect x="98.04" y="19.61" width="9.8" height="9.8"/><rect x="98.04" width="9.8" height="9.8"/><rect x="88.23" y="284.31" width="9.81" height="9.81"/><rect x="88.23" y="264.71" width="9.81" height="9.8"/><rect x="88.23" y="19.61" width="9.81" height="9.8"/><rect x="88.23" width="9.81" height="9.8"/><rect x="78.43" y="284.31" width="9.8" height="9.81"/><rect x="78.43" y="264.71" width="9.8" height="9.8"/><rect x="78.43" y="19.61" width="9.8" height="9.8"/><rect x="78.43" width="9.8" height="9.8"/><rect x="68.62" y="284.31" width="9.81" height="9.81"/><rect x="68.62" y="264.71" width="9.81" height="9.8"/><rect x="68.62" y="19.61" width="9.81" height="9.8"/><rect x="68.62" width="9.81" height="9.8"/><rect x="58.82" y="284.31" width="9.8" height="9.81"/><rect x="58.82" y="264.71" width="9.8" height="9.8"/><rect x="58.82" y="19.61" width="9.8" height="9.8"/><rect x="58.82" width="9.8" height="9.8"/><rect x="49.02" y="284.31" width="9.8" height="9.81"/><rect x="49.02" y="264.71" width="9.8" height="9.8"/><rect x="49.02" y="19.61" width="9.8" height="9.8"/><rect x="49.02" width="9.8" height="9.8"/><rect x="39.21" y="284.31" width="9.81" height="9.81"/><rect x="39.21" y="264.71" width="9.81" height="9.8"/><rect x="39.21" y="19.61" width="9.81" height="9.8"/><rect x="39.21" width="9.81" height="9.8"/><rect x="29.41" y="284.31" width="9.8" height="9.81"/><rect x="29.41" y="254.9" width="9.8" height="9.81"/><rect x="29.41" y="29.41" width="9.8" height="9.81"/><rect x="29.41" width="9.8" height="9.8"/><rect x="19.6" y="274.51" width="9.81" height="9.8"/><rect x="19.6" y="245.1" width="9.81" height="9.8"/><rect x="19.6" y="235.29" width="9.81" height="9.81"/><rect x="19.6" y="225.49" width="9.81" height="9.8"/><rect x="19.6" y="215.69" width="9.81" height="9.8"/><rect x="19.6" y="205.88" width="9.81" height="9.81"/><rect x="19.6" y="196.08" width="9.81" height="9.8"/><rect x="19.6" y="186.27" width="9.81" height="9.81"/><rect x="19.6" y="176.47" width="9.81" height="9.8"/><rect x="19.6" y="166.67" width="9.81" height="9.8"/><rect x="19.6" y="156.86" width="9.81" height="9.81"/><rect x="19.6" y="147.06" width="9.81" height="9.8"/><rect x="19.6" y="137.25" width="9.81" height="9.81"/><rect x="19.6" y="127.45" width="9.81" height="9.8"/><rect x="19.6" y="117.65" width="9.81" height="9.8"/><rect x="19.6" y="107.84" width="9.81" height="9.81"/><rect x="19.6" y="98.04" width="9.81" height="9.8"/><rect x="19.6" y="88.24" width="9.81" height="9.8"/><rect x="19.6" y="78.43" width="9.81" height="9.81"/><rect x="19.6" y="68.63" width="9.81" height="9.8"/><rect x="19.6" y="58.82" width="9.81" height="9.81"/><rect x="19.6" y="49.02" width="9.81" height="9.8"/><rect x="19.6" y="39.22" width="9.81" height="9.8"/><rect x="19.6" y="9.8" width="9.81" height="9.81"/><rect x="9.8" y="274.51" width="9.8" height="9.8"/><rect x="9.8" y="264.71" width="9.8" height="9.8"/><rect x="9.8" y="19.61" width="9.8" height="9.8"/><rect x="9.8" y="9.8" width="9.8" height="9.81"/><rect y="254.9" width="9.8" height="9.81"/><rect y="245.1" width="9.8" height="9.8"/><rect y="235.29" width="9.8" height="9.81"/><rect y="225.49" width="9.8" height="9.8"/><rect y="215.69" width="9.8" height="9.8"/><rect y="205.88" width="9.8" height="9.81"/><rect y="196.08" width="9.8" height="9.8"/><rect y="186.27" width="9.8" height="9.81"/><rect y="176.47" width="9.8" height="9.8"/><rect y="166.67" width="9.8" height="9.8"/><rect y="156.86" width="9.8" height="9.81"/><rect y="147.06" width="9.8" height="9.8"/><rect y="137.25" width="9.8" height="9.81"/><rect y="127.45" width="9.8" height="9.8"/><rect y="117.65" width="9.8" height="9.8"/><rect y="107.84" width="9.8" height="9.81"/><rect y="98.04" width="9.8" height="9.8"/><rect y="88.24" width="9.8" height="9.8"/><rect y="78.43" width="9.8" height="9.81"/><rect y="68.63" width="9.8" height="9.8"/><rect y="58.82" width="9.8" height="9.81"/><rect y="49.02" width="9.8" height="9.8"/><rect y="39.22" width="9.8" height="9.8"/><rect y="29.41" width="9.8" height="9.81"/></g></g><text x="0" y="309.12" fill="#000000" font-size="5px" font-weight="bold" font-family="'Helvetica Neue', Helvetica, Arial-Unicode, Arial, Sans-serif">Created by Ferdinand Engländer</text><text x="0" y="314.12" fill="#000000" font-size="5px" font-weight="bold" font-family="'Helvetica Neue', Helvetica, Arial-Unicode, Arial, Sans-serif">from the Noun Project</text></svg>